<svg width="46" height="36" viewBox="0 0 46 36" fill="none" xmlns="http://www.w3.org/2000/svg">
<path d="M34.4583 0.375C30.3958 0.375 26.0208 1.20833 23 3.5C19.9792 1.20833 15.6042 0.375 11.5417 0.375C8.52083 0.375 5.3125 0.833333 2.625 2.02083C1.10417 2.70833 0.083334 4.1875 0.083334 5.875V29.375C0.083334 32.0833 2.625 34.0833 5.25 33.4167C7.29167 32.8958 9.45833 32.6667 11.5417 32.6667C14.7917 32.6667 18.25 33.2083 21.0417 34.5833C22.2917 35.2083 23.7083 35.2083 24.9375 34.5833C27.7292 33.1875 31.1875 32.6667 34.4375 32.6667C36.5208 32.6667 38.6875 32.8958 40.7292 33.4167C43.3542 34.1042 45.8958 32.1042 45.8958 29.375V5.875C45.8958 4.1875 44.875 2.70833 43.3542 2.02083C40.6875 0.833333 37.4792 0.375 34.4583 0.375ZM41.75 26.8958C41.75 28.2083 40.5417 29.1667 39.25 28.9375C37.6875 28.6458 36.0625 28.5208 34.4583 28.5208C30.9167 28.5208 25.8125 29.875 23 31.6458V7.66667C25.8125 5.89583 30.9167 4.54167 34.4583 4.54167C36.375 4.54167 38.2708 4.72917 40.0833 5.125C41.0417 5.33333 41.75 6.1875 41.75 7.16667V26.8958Z" fill="#131314"/>
<path d="M27.125 13.9376C26.4583 13.9376 25.8542 13.5209 25.6458 12.8543C25.375 12.0418 25.8333 11.1459 26.6458 10.8959C29.8542 9.85427 34 9.52094 37.8125 9.95844C38.6667 10.0626 39.2917 10.8334 39.1875 11.6876C39.0833 12.5418 38.3125 13.1668 37.4583 13.0626C34.0833 12.6668 30.3958 12.9793 27.6042 13.8751C27.4375 13.8959 27.2708 13.9376 27.125 13.9376ZM27.125 19.4793C26.4583 19.4793 25.8542 19.0626 25.6458 18.3959C25.375 17.5834 25.8333 16.6876 26.6458 16.4376C29.8333 15.3959 34 15.0626 37.8125 15.5001C38.6667 15.6043 39.2917 16.3751 39.1875 17.2293C39.0833 18.0834 38.3125 18.7084 37.4583 18.6043C34.0833 18.2084 30.3958 18.5209 27.6042 19.4168C27.4375 19.4584 27.2708 19.4793 27.125 19.4793ZM27.125 25.0209C26.4583 25.0209 25.8542 24.6043 25.6458 23.9376C25.375 23.1251 25.8333 22.2293 26.6458 21.9793C29.8333 20.9376 34 20.6043 37.8125 21.0418C38.6667 21.1459 39.2917 21.9168 39.1875 22.7709C39.0833 23.6251 38.3125 24.2293 37.4583 24.1459C34.0833 23.7501 30.3958 24.0626 27.6042 24.9584C27.4375 25.0001 27.2708 25.0209 27.125 25.0209Z" fill="#131314"/>
</svg>
