<svg width="46" height="36" viewBox="0 0 46 36" fill="none" xmlns="http://www.w3.org/2000/svg">
<path d="M41.75 10.6667C38.7292 10.6667 37.0417 13.6667 37.7292 15.8959L30.3333 23.3125C29.7083 23.125 28.7917 23.125 28.1667 23.3125L22.8542 18C23.5625 15.7709 21.875 12.75 18.8333 12.75C15.8125 12.75 14.1042 15.75 14.8125 18L5.3125 27.4792C3.08333 26.7917 0.083334 28.4792 0.083334 31.5C0.083334 33.7917 1.95833 35.6667 4.25 35.6667C7.27083 35.6667 8.95833 32.6667 8.27083 30.4375L17.75 20.9375C18.375 21.125 19.2917 21.125 19.9167 20.9375L25.2292 26.25C24.5208 28.4792 26.2083 31.5 29.25 31.5C32.2708 31.5 33.9792 28.5 33.2708 26.25L40.6875 18.8542C42.9167 19.5417 45.9167 17.8542 45.9167 14.8334C45.9167 12.5417 44.0417 10.6667 41.75 10.6667Z" fill="#131314"/>
<path d="M29.25 12.75L31.2083 8.4375L35.5 6.5L31.2083 4.5625L29.25 0.25L27.3333 4.5625L23 6.5L27.3333 8.4375L29.25 12.75ZM5.29167 16.9167L6.33333 12.75L10.5 11.7083L6.33333 10.6667L5.29167 6.5L4.25 10.6667L0.083334 11.7083L4.25 12.75L5.29167 16.9167Z" fill="#131314"/>
</svg>
