<svg width="9" height="9" viewBox="0 0 9 9" fill="none" xmlns="http://www.w3.org/2000/svg">
<path d="M0.239432 0.239432C-0.0798107 0.558675 -0.0798107 1.07631 0.239432 1.39551L3.12968 4.28571L0.239441 7.17591C-0.0798017 7.4952 -0.0798017 8.01283 0.239441 8.33203C0.558684 8.65123 1.07631 8.65123 1.39551 8.33203L4.28571 5.44174L7.17591 8.33203C7.49511 8.65123 8.01274 8.65123 8.33194 8.33203C8.65123 8.01274 8.65123 7.4952 8.33194 7.17591L5.44183 4.28571L8.33194 1.39551C8.65123 1.07631 8.65123 0.558675 8.33194 0.239432C8.01274 -0.0798022 7.49511 -0.0798022 7.17591 0.239432L4.28571 3.1296L1.39551 0.239432C1.07631 -0.0798107 0.558675 -0.0798107 0.239432 0.239432Z" fill="black"/>
</svg>
